<?xml version="1.0" encoding="utf-8"?>
<!-- Generator: Adobe Illustrator 24.1.1, SVG Export Plug-In . SVG Version: 6.00 Build 0)  -->
<svg version="1.1" id="Layer_1" xmlns="http://www.w3.org/2000/svg" xmlns:xlink="http://www.w3.org/1999/xlink" x="0px" y="0px"
	 viewBox="0 0 351.5 351.5" style="enable-background:new 0 0 351.5 351.5;" xml:space="preserve">
<style type="text/css">
	.st0{fill:#50C1ED;}
	.st1{display:none;}
	.st2{display:inline;fill:#FFFFFF;}
	.st3{fill:#FFFFFF;}
</style>
<rect x="0" y="0" class="st0" width="351.5" height="351.5"/>
<g class="st1">
	<path class="st2" d="M177.2,268.4h13.6v12.9h-25.3c-2.7,0-4.9-2.2-4.9-4.8v-32.8c0-2.7,2.2-4.8,4.9-4.8h42.2v-16.7h-42.2
		c-12,0-21.7,9.7-21.7,21.5v32.8c0,11.9,9.7,21.5,21.7,21.5h42.2l0-46.2h-30.5V268.4z"/>
	<path class="st2" d="M263.4,53.2v54.4c0,2.7-2.2,4.9-4.9,4.9h-22.3c-2.7,0-4.9-2.2-4.9-4.9V53.2h-16.9v54.4
		c0,12,9.8,21.8,21.8,21.8h22.3c12,0,21.8-9.8,21.8-21.8V53.2H263.4z"/>
	<path class="st2" d="M115.4,222.2H92.9c-12,0-21.7,9.7-21.7,21.7V298H88v-54.1c0-2.7,2.2-4.9,4.9-4.9h22.6c2.7,0,4.9,2.2,4.9,4.9
		V298h16.8v-54.1C137.1,231.9,127.4,222.2,115.4,222.2z"/>
	<path class="st2" d="M93.2,155.8h43.7v-16.9H93.2c-12,0-21.7,9.8-21.7,21.8v33.2c0,12,9.7,21.8,21.7,21.8h43.7v-16.9H93.2
		c-2.7,0-4.9-2.2-4.9-4.9v-8.1h23.3v-16.9H88.3v-8.1C88.3,158,90.5,155.8,93.2,155.8z"/>
	<path class="st2" d="M214.4,243.7v32.8c0,11.9,9.7,21.5,21.7,21.5h43.8v-16.7h-43.8c-2.7,0-4.9-2.2-4.9-4.8v-8h23.3v-16.7h-23.3v-8
		c0-4.5,7.6-4.8,9.9-4.8h38.8v-16.7h-38.8C222.7,222.2,214.4,233,214.4,243.7z"/>
	<path class="st2" d="M257.1,139h-29.6v16.8h29.6c3.4,0,6.2,2.8,6.2,6.2v6.8h-25.7c-12.7,0-23.1,10.3-23.1,23.1v0.6
		c0,12.7,10.3,23.1,23.1,23.1h42.6v-53.4C280.2,149.3,269.8,139,257.1,139z M263.3,198.7h-25.7c-3.4,0-6.2-2.8-6.2-6.2v-0.6
		c0-3.4,2.8-6.2,6.2-6.2h25.7V198.7z"/>
	<path class="st2" d="M185.4,139h-41.6v76.5h16.8v-31.3h24.8h0.6c2.7,0,4.9,2.2,4.9,4.9v26.4h16.8v-26.4c0-5.1-1.8-9.9-4.7-13.6
		c2.9-3.8,4.7-8.6,4.7-13.8v-0.2C207.7,149.1,197.7,139,185.4,139z M160.6,167.2V156h24.8c3,0,5.4,2.5,5.4,5.5v0.2
		c0,3-2.4,5.5-5.4,5.5H160.6z"/>
	<polygon class="st2" points="207.7,112.4 161.6,112.4 161.6,53.2 143.6,53.2 143.6,129.3 207.7,129.3 	"/>
	<path class="st2" d="M84.4,129.3h28.5c3.9,0,13.5-2.2,17.9-7.3c8.2-9.6,8.3-23.6,0.2-33.3c2.6-3.7,4.2-8.1,4.2-13v-0.2
		c0-12.3-10-22.3-22.3-22.3H71.3l0,76.1H84.4z M118.2,110.7c-1.1,0.7-4.2,1.6-5.3,1.7H88.1V98h24.7c1.2,0.1,4.2,1,5.4,1.7
		C120.8,103,120.8,107.4,118.2,110.7z M88.1,70.1h24.8c3,0,5.4,2.4,5.4,5.4v0.2c0,3-2.4,5.4-5.4,5.4H88.1V70.1z"/>
</g>
<g>
	<path class="st3" d="M288.1,167.3v8.4c0,62.1-50.4,112.5-112.5,112.5S63.4,237.8,63.4,175.7S113.5,63.2,175.6,63.2
		c30.9,0,58.8,12.6,79.2,32.7l-41.7,41.4c-9.6-9-22.2-15-37.5-15c-28.2,0-53.1,22.5-53.1,53.4s25.5,53.4,53.1,53.4
		c17.7,0,34.2-8.7,43.5-22.2h-43.5v-39.6H288.1z"/>
</g>
</svg>
